# xmcd
#
# Track frame offsets: 
#        150
#        27899
#        64780
#        97802
#        148257
#        172384
#        212900
#        252769
#        271122
#
# Disc length: 4217 seconds
#
# Revision: 6
# Processed by: cddbd v1.5.2PL0 Copyright (c) Steve Scherf et al.
# Submitted via: ExactAudioCopy v0.99pb5
#
DISCID=82107709
DTITLE=Stan Getz, Kenny Barron - Café Montmartre - Stan Getz, Kenny Ba
DTITLE=rron
DYEAR=2002
DGENRE=Jazz
TTITLE0=People Time
TTITLE1=I Thought About You
TTITLE2=Soul Eyes
TTITLE3=I Can't Get Started
TTITLE4=I'm Okay
TTITLE5=Falling In Love
TTITLE6=I Remember Clifford
TTITLE7=Blood Count
TTITLE8=First Song (For Ruth)
EXTD=YEAR: 2002
EXTT0=
EXTT1=
EXTT2=
EXTT3=
EXTT4=
EXTT5=
EXTT6=
EXTT7=
EXTT8=
PLAYORDER=
